<svg xmlns="http://www.w3.org/2000/svg" enable-background="new 0 0 51 51" viewBox="0 0 51 51"><rect width="8.163" height="16.031" x="14.239" y="32.508" fill="#FF5975"/><path fill="#DEF" d="M1.50112,29.64384c0-0.70152,0.21531-1.39609,0.62513-1.97259l1.29884-1.84062
			c0.40977-0.56951,0.62509-1.25717,0.62509-1.9656l0-4.41053l12.85645,0v4.41053c0,0.70843,0.21531,1.39609,0.62513,1.9656
			l1.29884,1.84758c0.40981,0.56955,0.62513,1.25717,0.62513,1.96564l0,8.06595c0,0.96546-0.70847,1.82672-1.66698,1.89616
			c-0.54869,0.04167-1.04185-0.16669-1.39609-0.51397c-0.32643-0.32643-0.52788-0.77791-0.52788-1.27107v5.96434
			c0,0.95851-0.70843,1.81977-1.66694,1.88921c-1.03802,0.07883-1.92397-0.75291-1.92397-1.79195v1.72947
			c0,1.0488-0.8543,1.97255-1.90311,1.91006c-0.92508-0.05787-1.68779-0.83503-1.68779-1.79895v-1.28493
			c0,0.98627-0.79877,1.792-1.792,1.792c-0.99679,0-1.792-0.80695-1.792-1.792V42.9448c0,0.99323-0.80568,1.792-1.79891,1.792
			c-0.97272,0-1.792-0.78777-1.792-1.792L1.50112,29.64384z"/><rect width="16.031" height="8.163" x="2.46" y="14.25" fill="#C7C7C7"/><path fill="#DEF" d="M21.36736,1.49992c0.70152,0,1.39609,0.21531,1.97259,0.62513l1.84062,1.29884
			c0.56951,0.40977,1.25716,0.62509,1.9656,0.62509l4.41054,0l-0.00004,12.85644h-4.41054
			c-0.70843,0-1.39609,0.21531-1.9656,0.62513l-1.84758,1.29884c-0.56955,0.40981-1.25717,0.62513-1.96564,0.62513l-8.06595,0
			c-0.96546,0-1.82672-0.70847-1.89615-1.66698c-0.04167-0.54869,0.16669-1.04185,0.51398-1.39609
			c0.32643-0.32643,0.77791-0.52788,1.27107-0.52788l-5.96434,0c-0.95851,0-1.81976-0.70843-1.8892-1.66693
			c-0.07883-1.03802,0.75292-1.92396,1.79196-1.92396H5.39921c-1.04881,0-1.97255-0.8543-1.91006-1.90311
			c0.05788-0.92508,0.83503-1.68779,1.79896-1.68779l1.28493,0c-0.98628,0-1.792-0.79877-1.79199-1.792
			c0-0.9968,0.80696-1.79199,1.792-1.79199l1.49334,0c-0.99323,0-1.792-0.80568-1.79199-1.7989
			c0-0.97272,0.78779-1.79199,1.792-1.79199L21.36736,1.49992z"/><rect width="8.163" height="16.031" x="28.598" y="2.458" fill="#D986FF"/><path fill="#DEF" d="M49.499,21.35352c0,0.70152-0.21532,1.39609-0.62513,1.97259l-1.29884,1.84062
			c-0.40977,0.56951-0.62509,1.25717-0.62509,1.9656l-0.00001,4.41053l-12.85645,0l0.00001-4.41053
			c0-0.70843-0.21531-1.39609-0.62513-1.9656l-1.29883-1.84757c-0.40981-0.56955-0.62513-1.25717-0.62513-1.96564l0.00001-8.06594
			c0-0.96546,0.70848-1.82672,1.66698-1.89616c1.04282-0.0792,1.92397,0.74811,1.92397,1.78504l0.00001-5.96433
			c0-0.95851,0.70844-1.81976,1.66694-1.8892c1.03802-0.07883,1.92397,0.75294,1.92397,1.79195V5.38541
			c0-1.0488,0.85431-1.97255,1.90311-1.91006c0.92508,0.05787,1.68779,0.83503,1.68779,1.79895l0,1.28493
			c0-0.98627,0.79877-1.792,1.792-1.792c0.9968,0,1.792,0.80695,1.792,1.792l0,1.49334c0-0.99323,0.80568-1.792,1.79891-1.792
			c0.97272,0,1.792,0.78777,1.79199,1.792L49.499,21.35352z"/><rect width="16.031" height="8.163" x="32.51" y="28.584" fill="#2FCBFF"/><g><path fill="#DEF" d="M45.71219,42.31248h-1.28375c0.98267,0,1.79092,0.80037,1.79092,1.79885
			c0,1.0327-0.85434,1.79092-1.79092,1.79092h-1.49768c0.99843,0,1.79881,0.80032,1.79881,1.79881
			c0,0.97582-0.80368,1.79092-1.79881,1.79092l-13.29717,0.00793c-0.70528,0-1.3947-0.21397-1.97317-0.62601l-1.83847-1.29961
			c-0.57053-0.41208-1.25995-0.62606-1.96523-0.62606h-1.45811V34.09488h1.45811c0.70528,0,1.3947-0.2219,1.96523-0.62601
			l1.8464-1.29961c0.57053-0.41208,1.25207-0.62601,1.96524-0.62601h8.06704c0.9668,0,1.8226,0.70524,1.89394,1.66411
			c0.07673,1.07443-0.77589,1.92562-1.78299,1.92562h5.95917c0.95882,0,1.8226,0.71322,1.89389,1.66411
			c0.03966,0.55471-0.16638,1.04602-0.52299,1.40263c-0.32488,0.32493-0.76865,0.52304-1.26789,0.52304h1.72752
			c1.04602,0,1.97317,0.8558,1.90976,1.90183C47.44374,41.58422,46.65529,42.31248,45.71219,42.31248z"/><path fill="#293C66" d="M50.49902,21.35326L50.49219,8.05248c0-1.53955-1.25244-2.79199-2.79199-2.79199
				c-0.3623,0-0.7085,0.06885-1.02637,0.19434c-0.4292-0.9917-1.41699-1.6875-2.56445-1.6875
				c-0.39111,0-0.76416,0.08105-1.10254,0.22705c-0.43896-0.85107-1.30225-1.45361-2.31787-1.51709L40.52881,2.4724
				c-1.21631,0-2.28125,0.85498-2.65771,2.00635c-0.03491-0.01251-0.07452-0.01538-0.11035-0.02649V2.45824c0-0.55225-0.44775-1-1-1
				h-8.16309c-0.55225,0-1,0.44775-1,1v0.59082H27.146c-1.96279,0-2.91036-2.54932-5.7793-2.54932L8.06641,0.50707
				c-1.53955,0-2.79199,1.25244-2.79199,2.79199c0,0.3623,0.06885,0.7085,0.19434,1.02637
				c-0.9917,0.4292-1.6875,1.41699-1.6875,2.56445c0,0.39111,0.08105,0.76367,0.22656,1.10205
				C3.15674,8.4309,2.5542,9.29418,2.49121,10.3098c-0.04492,0.74902,0.22168,1.47021,0.75049,2.03125
				c0.3457,0.3667,0.77881,0.63672,1.25244,0.78906c-0.01392,0.03888-0.01721,0.08069-0.02942,0.12012H2.45947
				c-0.55225,0-1,0.44775-1,1v8.16309c0,1.23961,1.49057,0.97178,1.59082,1v0.45166c0,1.96477-2.54932,2.93545-2.54932,5.7793
				L0.5083,42.94457c0,1.53906,1.25244,2.79199,2.79199,2.79199c0.3623,0,0.7085-0.06934,1.02637-0.19434
				c0.4292,0.99219,1.41699,1.6875,2.56445,1.6875c0.39111,0,0.76367-0.08105,1.10205-0.22656
				c0.43896,0.85156,1.30225,1.45313,2.31787,1.5166l0.16016,0.00488c1.21631,0,2.28125-0.85449,2.65771-2.00586
				c0.03522,0.01257,0.07434,0.01556,0.11035,0.02673v1.99377c0,0.55273,0.44775,1,1,1h8.16309c0.55225,0,1-0.44727,1-1v-0.59082
				h0.45459c1.94442,0,2.94506,2.55176,5.77686,2.55176h0.00049l13.29639-0.00781c1.54346,0,2.79883-1.25195,2.79883-2.79102
				c0-0.3623-0.06934-0.70898-0.19531-1.02734c0.99023-0.42871,1.68506-1.41602,1.68506-2.5625
				c0-0.39453-0.08203-0.77051-0.22949-1.11133c0.8457-0.43848,1.44824-1.2998,1.51953-2.31543
				c0.07834-1.30287-0.79582-2.42726-1.99902-2.81836c0.01361-0.03833,0.01685-0.08014,0.02875-0.11914h2.00153
				c0.55225,0,1-0.44727,1-1v-8.16309c0-1.23961-1.49057-0.97178-1.59082-1v-0.45166
				C47.94971,25.23908,50.49902,24.11082,50.49902,21.35326z M29.59766,3.45824h6.16309v1.13049
				c-0.96033,0.46185-1.62549,1.46918-1.62549,2.62341v3.28711c-0.31348-0.09277-0.6626-0.12842-0.99609-0.10547
				c-1.45508,0.10547-2.59473,1.37646-2.59473,2.89355V17.489h-0.94678V3.45824z M30.54443,19.489v1.86475
				c0,2.77415,2.54883,3.84988,2.54883,5.77881v0.45166h-0.5835c-0.55225,0-1,0.44775-1,1v1.95898h-1.87598
				c-0.93066,0-1.81299,0.28174-2.54102,0.80811l-1.84912,1.30176c-0.40186,0.28516-0.89453,0.44189-1.38672,0.44189h-0.45459
				v-0.58643c0-0.55225-0.44775-1-1-1h-1.94678v-1.86475c0-2.76806-2.54883-3.8503-2.54883-5.77881v-0.45166h0.5835
				c0.55225,0,1-0.44775,1-1v-1.95898h1.87695c0.92822,0,1.80957-0.28125,2.54102-0.80713l1.85645-1.30518
				c0.39697-0.28564,0.875-0.43652,1.38135-0.43652h0.45166v0.5835c0,0.55225,0.44775,1,1,1H30.54443z M4.4873,10.43139
				c0.02588-0.41309,0.38477-0.74951,0.80078-0.74951c1.11037,0,8.51404,0,8.39014,0c0.55225,0,1-0.44775,1-1s-0.44775-1-1-1
				H6.57324c-0.43652,0-0.79199-0.35547-0.79199-0.79199s0.35547-0.79199,0.79199-0.79199c1.85155,0,6.00705,0,5.88965,0
				c0.55225,0,1-0.44775,1-1s-0.44775-1-1-1H8.06641c-0.43652,0-0.79199-0.3584-0.79199-0.79883
				c0-0.43652,0.35547-0.79199,0.79248-0.79199l13.30029-0.00732c1.90386,0,3.02821,2.54932,5.77881,2.54932h0.45166v10.85645
				H27.146c-0.92822,0-1.81006,0.28125-2.54053,0.80713l-1.85596,1.30469c-0.39795,0.28613-0.87598,0.43701-1.38232,0.43701
				h-8.06592c-0.46582,0-0.86914-0.33154-0.89893-0.74268c-0.03484-0.46157,0.32997-0.84814,0.78809-0.84814h4.05127
				c0.55225,0,1-0.44775,1-1s-0.44775-1-1-1c-3.49272,0-5.86278,0-10.01563,0c-0.4624,0-0.8623-0.33154-0.89209-0.74316
				c-0.0342-0.44869,0.32866-0.84766,0.79492-0.84766h6.54932c0.55225,0,1-0.44775,1-1s-0.44775-1-1-1
				c-0.17409,0-8.53289,0-8.27881,0C4.92407,11.2727,4.45963,10.89363,4.4873,10.43139z M3.45947,15.25023h1.14795
				c0.46442,0.95404,1.46918,1.61328,2.61865,1.61328h3.28857c-0.09473,0.32031-0.13232,0.65771-0.10693,0.99609
				c0.10547,1.45508,1.37646,2.59473,2.89355,2.59473h4.18896v0.95898H3.45947V15.25023z M11.27393,45.61156
				c0,0.48633-0.375,0.91309-0.80273,0.91309l-0.03857-0.00098c-0.41309-0.02539-0.74951-0.38477-0.74951-0.80078
				c0-1.11037,0-8.51453,0-8.39063c0-0.55273-0.44775-1-1-1s-1,0.44727-1,1v7.10547c0,0.43652-0.35547,0.79199-0.79199,0.79199
				s-0.79199-0.35547-0.79199-0.79199c0-1.85155,0-6.00706,0-5.88965c0-0.55273-0.44775-1-1-1s-1,0.44727-1,1v4.39648
				c0,0.43652-0.3584,0.79199-0.79883,0.79199c-0.43652,0-0.79199-0.35547-0.79199-0.79297L2.50098,29.64379
				c0-1.95692,2.54932-2.95149,2.54932-5.77881v-0.45166h10.85645v0.45166c0,2.82386,2.54883,3.86549,2.54883,5.77881v8.06641
				c0,0.46582-0.33154,0.86816-0.80664,0.90039c-0.26318,0-0.44775-0.12598-0.54932-0.22559
				c-0.15137-0.15137-0.23486-0.35156-0.23486-0.56445v-4.05078c0-0.55273-0.44775-1-1-1s-1,0.44727-1,1v4.05078v5.96484
				c0,0.46191-0.33154,0.86133-0.80371,0.89355c-0.43046,0-0.78711-0.35929-0.78711-0.79688v-6.5498c0-0.55273-0.44775-1-1-1
				s-1,0.44727-1,1C11.27393,37.50636,11.27393,45.86564,11.27393,45.61156z M15.23926,47.5393v-1.13104
				c0.96033-0.46149,1.62549-1.46906,1.62549-2.62286v-3.28711c0.31885,0.09375,0.6709,0.13379,0.99609,0.10449
				c1.45508-0.10449,2.59473-1.37598,2.59473-2.89258v-4.20215h0.94678v0.56757c-0.00012,0.00684-0.00391,0.01251-0.00391,0.01935
				c0.0004,1.37468-0.00145-4.97985,0.00391,13.44434H15.23926z M46.51367,40.55395c-0.03027,0.43262-0.375,0.75879-0.80127,0.75879
				c-1.2725,0.00044-8.8714,0.0031-8.39063,0.00293c-0.55225,0-1,0.44727-1,1s0.44775,1,1,1h7.10547
				c0.00275,0,0.00494-0.00153,0.00769-0.00153c0.4328,0.00391,0.7843,0.35938,0.7843,0.79742
				c0,0.48828-0.41064,0.79102-0.79102,0.79102c-0.14928-0.00008-6.15096-0.00306-5.89111-0.00293c-0.55225,0-1,0.44727-1,1
				s0.44775,1,1,1h4.37903c0.00513,0.00006,0.0094,0.00293,0.01453,0.00293c0.44775,0,0.79883,0.35059,0.79883,0.79883
				c0,0.42871-0.36572,0.79102-0.79932,0.79102L29.6333,48.50024c-1.9648,0-2.91987-2.55176-5.77637-2.55176h-0.45459V35.09496
				h0.45459c0.90283,0,1.80615-0.28809,2.54053-0.80859l1.85693-1.30664c0.39502-0.28564,0.87207-0.43652,1.37939-0.43652h8.06689
				c0.46436,0,0.8667,0.33105,0.89648,0.73535c0.021,0.29004-0.10156,0.48633-0.20752,0.60059
				c-0.15039,0.16113-0.36133,0.25391-0.57813,0.25391c-0.00171,0-0.00311,0.00098-0.00482,0.00098h-4.0484
				c-0.55225,0-1,0.44727-1,1s0.44775,1,1,1h4.05176c0.00171,0,0.00311-0.00098,0.00482-0.00098h5.95563
				c0.45605,0,0.8667,0.33789,0.89648,0.73535c0.03263,0.45838-0.32278,0.85449-0.79346,0.85449
				c-0.00342,0-0.00629,0.00189-0.0097,0.00195h-6.54205c-0.55225,0-1,0.44727-1,1s0.44775,1,1,1
				c0.10066-0.00003,8.68127-0.00205,8.2793-0.00195C46.07507,39.72289,46.54061,40.10811,46.51367,40.55395z M47.54053,35.74731
				h-1.14746c-0.46545-0.95404-1.47211-1.61426-2.62256-1.61426h-3.2832c0.09277-0.31836,0.12939-0.65527,0.10449-1
				c-0.10791-1.45215-1.37793-2.58985-2.89111-2.58985h-4.19092v-0.95898h14.03076V35.74731z M35.09326,27.58422v-0.45166
				c0-2.81234-2.54883-3.87986-2.54883-5.77881v-8.06641c0-0.46582,0.33154-0.86914,0.80469-0.90137
				c0.43359,0,0.78613,0.35449,0.78613,0.79053v4.05127c0,0.55225,0.44775,1,1,1s1-0.44775,1-1c0-3.49272,0-5.86278,0-10.01563
				c0-0.4624,0.33154-0.8623,0.80371-0.89453c0.43408,0,0.78711,0.35791,0.78711,0.79736v6.5498c0,0.55225,0.44775,1,1,1
				s1-0.44775,1-1c0-0.17409,0-8.53338,0-8.2793c0-0.48584,0.37402-0.91211,0.83887-0.91211h0.00195
				c0.41357,0.02588,0.75049,0.38525,0.75049,0.80078c0,1.11037,0,8.51453,0,8.39063c0,0.55225,0.44775,1,1,1s1-0.44775,1-1V6.55932
				c0-0.43652,0.35547-0.79199,0.79199-0.79199s0.79199,0.35547,0.79199,0.79199c0,1.85155,0,6.00705,0,5.88965
				c0,0.55225,0.44775,1,1,1s1-0.44775,1-1V8.05248c0-0.43652,0.3584-0.79199,0.79883-0.79199
				c0.43652,0,0.79199,0.35547,0.79199,0.79248l0.00684,13.30078c0,1.94621-2.54932,2.93335-2.54932,5.77881v0.45166H35.09326z"/></g></svg>