<svg xmlns="http://www.w3.org/2000/svg" enable-background="new 0 0 64 64" viewBox="0 0 64 64"><path d="M9.02 19.41H6.04c-.62 0-1.12.49-1.12 1.1v2.94c0 .61.5 1.1 1.12 1.1s1.12-.49 1.12-1.1v-1.84h1.87c.62 0 1.12-.49 1.12-1.1S9.64 19.41 9.02 19.41zM20.29 30.72c.22 0 .44-.06.64-.2l7.56-5.2c.51-.35.63-1.04.28-1.54-.35-.5-1.05-.62-1.56-.27l-7.56 5.2c-.51.35-.63 1.04-.28 1.54C19.59 30.56 19.94 30.72 20.29 30.72zM30.69 28.43l-7.56 5.2c-.51.35-.63 1.04-.28 1.54.22.31.57.47.92.47.22 0 .44-.06.64-.2l7.56-5.2c.51-.35.63-1.04.28-1.54C31.9 28.2 31.2 28.08 30.69 28.43zM31.4 24.29l-12.45 8.56c-.51.35-.63 1.04-.28 1.54.22.31.57.47.92.47.22 0 .44-.06.64-.2l12.45-8.56c.51-.35.63-1.04.28-1.54C32.6 24.07 31.9 23.95 31.4 24.29z"/><path d="M64,50.77V12.68c0-4.13-3.42-7.5-7.63-7.5h-12.9c-4.21,0-7.63,3.36-7.63,7.5v1.96h-30c-2.02,0-3.87,1-4.94,2.67
		C0.31,18.22,0,19.29,0,20.4v19.86c0,1.11,0.31,2.18,0.91,3.09c1.08,1.68,2.93,2.69,4.94,2.69h16.41v4.56
		c-5.4,0.29-9.38,1.26-9.38,2.42c0,1.38,5.66,2.5,12.64,2.5c4.85,0,9.06-0.54,11.18-1.33c0.49,0.94,1.18,1.77,2.01,2.43h-1.74
		c-0.62,0-1.12,0.49-1.12,1.1s0.5,1.1,1.12,1.1h25.9c0.62,0,1.12-0.49,1.12-1.1s-0.5-1.1-1.12-1.1h-1.74
		C62.88,55.24,64,53.13,64,50.77z M5.85,43.83c-1.24,0-2.38-0.62-3.06-1.67c-0.36-0.56-0.55-1.21-0.55-1.9V20.4
		c0-0.69,0.19-1.35,0.56-1.91c0.66-1.03,1.8-1.65,3.05-1.65h30v26.99H5.85z M28.78,50.6v-4.56h7.07v4.73c0,0.28,0.02,0.55,0.05,0.82
		C34.22,51.11,31.71,50.75,28.78,50.6z M61.76,50.77c0,2.92-2.42,5.29-5.39,5.29h-12.9c-2.97,0-5.39-2.37-5.39-5.29v-4.73v-31.4
		v-1.96c0-2.92,2.42-5.29,5.39-5.29h12.9c2.97,0,5.39,2.37,5.39,5.29V50.77z"/><path d="M51.78 36.7c0-1.01-.84-1.84-1.86-1.84-1.02 0-1.85.82-1.85 1.84 0 1.01.83 1.84 1.85 1.84C50.95 38.53 51.78 37.71 51.78 36.7zM49.54 36.7c0-.2.17-.37.37-.37.22 0 .39.16.39.37 0 .21-.17.37-.39.37C49.71 37.07 49.54 36.9 49.54 36.7zM56.47 14.11c1.03 0 1.86-.83 1.86-1.85 0-1.01-.84-1.84-1.86-1.84-1.03 0-1.86.82-1.86 1.84C54.6 13.28 55.44 14.11 56.47 14.11zM56.47 12.07c.1 0 .18.08.18.18 0 .21-.37.21-.37 0C56.28 12.16 56.37 12.07 56.47 12.07zM49.92 42.12c-1.68 0-3.05 1.34-3.05 2.99 0 1.66 1.37 3.01 3.05 3.01 1.68 0 3.05-1.35 3.05-3.01C52.97 43.47 51.6 42.12 49.92 42.12zM49.92 45.92c-.45 0-.81-.36-.81-.8 0-.43.37-.79.81-.79.45 0 .81.35.81.79C50.73 45.57 50.38 45.92 49.92 45.92zM57.58 17.13H42.26c-.62 0-1.12.49-1.12 1.1s.5 1.1 1.12 1.1h15.32c.62 0 1.12-.49 1.12-1.1S58.2 17.13 57.58 17.13zM55.74 26.42H44.11c-.62 0-1.12.49-1.12 1.1s.5 1.1 1.12 1.1h11.62c.62 0 1.12-.49 1.12-1.1S56.35 26.42 55.74 26.42z"/></svg>