<svg xmlns="http://www.w3.org/2000/svg" width="267" height="267" fill-rule="evenodd" stroke-linejoin="round" stroke-miterlimit="2" clip-rule="evenodd"><path fill="#fed29d" d="M183.098,236.347C171.588,211.948 176.602,183.803 187.411,163.1C198.221,142.396 203.431,90.986 168.255,68.601C133.079,46.217 73.176,61.301 55.922,80.36C30.072,108.913 55.205,116.498 25.083,167.611C16.267,182.57 43.072,183.116 43.072,183.116C43.072,183.116 47.604,216.052 56.704,221.447C74.312,231.887 99.244,211.359 113.473,254.167L183.098,236.347Z"/><path fill="#1c3d57" d="M185.925,235.013C174.85,211.538 179.781,184.466 190.182,164.546C195.789,153.805 199.997,135.108 198.189,116.183C196.358,97.034 188.399,77.716 169.933,65.965C151.736,54.385 127.161,52.38 104.887,55.852C82.527,59.337 62.565,68.366 53.605,78.263C39.972,93.322 39.737,102.834 38.985,115.338C38.291,126.876 37.049,141.15 22.391,166.024C20.041,170.011 19.794,173.27 20.576,175.868C21.384,178.55 23.367,180.677 26.033,182.231C30.429,184.792 36.81,185.727 40.365,186.061C41.193,191.14 43.35,202.898 46.831,211.914C49.045,217.647 51.944,222.258 55.11,224.135C62.607,228.58 71.318,227.948 80.081,228.269C85.675,228.474 91.303,229.143 96.474,232.756C101.789,236.469 106.534,243.197 110.508,255.152C111.052,256.789 112.822,257.676 114.459,257.132C116.096,256.588 116.983,254.818 116.439,253.181C111.875,239.452 106.157,231.896 100.054,227.632C93.808,223.269 87.066,222.27 80.31,222.023C72.606,221.741 64.888,222.667 58.298,218.759C56.003,217.399 54.266,213.818 52.662,209.663C48.321,198.422 46.168,182.69 46.168,182.69C45.958,181.167 44.672,180.023 43.136,179.992C43.136,179.992 36.973,179.876 31.826,178.031C29.465,177.185 27.18,176.122 26.561,174.066C26.169,172.764 26.597,171.196 27.775,169.197C43.238,142.959 44.491,127.884 45.224,115.713C45.898,104.509 46.022,95.952 58.239,82.457C66.533,73.295 85.15,65.253 105.849,62.027C126.633,58.788 149.598,60.433 166.577,71.238C183.287,81.871 190.311,99.45 191.967,116.778C193.645,134.331 189.843,151.691 184.641,161.653C173.422,183.141 168.326,212.357 180.272,237.68C181.008,239.24 182.872,239.909 184.432,239.173C185.992,238.437 186.661,236.573 185.925,235.013Z"/><path fill="#e9ebec" d="M137.511,120.439C125.554,109.028 118.102,92.943 118.102,75.131C118.102,40.564 146.166,12.5 180.733,12.5C215.3,12.5 243.363,40.564 243.363,75.131C243.363,109.697 215.3,137.761 180.733,137.761C170.736,137.761 161.283,135.414 152.897,131.242C136.566,144.18 106.466,144.159 114.955,141.441C121.867,139.228 131.13,130.01 137.511,120.439Z"/><path fill="#1c3d57" d="M133.455,120.815C127.626,128.981 119.945,136.562 114.002,138.465C112.209,139.039 111.35,139.834 111.021,140.278C110.503,140.977 110.344,141.678 110.35,142.316C110.36,143.29 110.848,145.073 113.306,145.696C114.639,146.033 117.825,146.146 122.035,145.696C130.587,144.78 143.717,141.673 153.258,134.878C161.617,138.734 170.925,140.886 180.733,140.886C217.024,140.886 246.488,111.422 246.488,75.131C246.488,38.839 217.024,9.375 180.733,9.375C144.441,9.375 114.977,38.839 114.977,75.131C114.977,92.87 122.017,108.979 133.455,120.814L133.455,120.815ZM125.08,138.977C130.394,134.672 135.876,128.526 140.111,122.173C140.952,120.911 140.766,119.226 139.668,118.179C128.308,107.337 121.227,92.054 121.227,75.131C121.227,42.289 147.891,15.625 180.733,15.625C213.575,15.625 240.238,42.289 240.238,75.131C240.238,107.973 213.575,134.636 180.733,134.636C171.236,134.636 162.256,132.407 154.289,128.444C153.205,127.904 151.906,128.04 150.957,128.792C143.537,134.67 133.093,137.666 125.149,138.966L125.08,138.977Z"/><path fill="#1c3d57" d="M153.325 99.145C163.258 107.034 172.324 110.693 181.186 110.611 190.059 110.53 198.83 106.697 208.165 99.125 209.505 98.039 209.71 96.069 208.624 94.73 207.537 93.39 205.568 93.185 204.228 94.271 196.203 100.78 188.756 104.291 181.129 104.362 173.491 104.432 165.773 101.05 157.212 94.251 155.862 93.178 153.894 93.404 152.822 94.754 151.749 96.105 151.975 98.072 153.325 99.145zM191.608 69.785C199.8 62.576 210.405 62.482 217.32 69.886 218.497 71.146 220.476 71.214 221.737 70.037 222.997 68.859 223.065 66.88 221.888 65.62 212.633 55.711 198.442 55.445 187.479 65.094 186.185 66.233 186.059 68.209 187.198 69.504 188.338 70.799 190.314 70.925 191.608 69.785zM173.986 65.094C163.023 55.445 148.832 55.711 139.578 65.62 138.401 66.88 138.468 68.859 139.729 70.037 140.989 71.214 142.968 71.146 144.145 69.886 151.06 62.482 161.666 62.576 169.857 69.785 171.152 70.925 173.128 70.799 174.268 69.504 175.407 68.209 175.281 66.233 173.986 65.094z"/></svg>