<svg
  xmlns="http://www.w3.org/2000/svg"
  viewBox="0 0 512 512"
  fill="red"
  width="24px"
  height="24px"
>
  <path
    d="M256 8C119.033 8 8 119.033 8 256s111.033 248 248 248 248-111.033 248-248S392.967 8 256 8zm0 456c-119.103 0-216-96.897-216-216 0-119.103 96.897-216 216-216 119.103 0 216 96.897 216 216 0 119.103-96.897 216-216 216z"
  />
  <path
    d="M256 336c-13.255 0-24-10.745-24-24V152c0-13.255 10.745-24 24-24s24 10.745 24 24v160c0 13.255-10.745 24-24 24zM256 416c-13.255 0-24-10.745-24-24s10.745-24 24-24c13.255 0 24 10.745 24 24s-10.745 24-24 24z"
  />
</svg>