<svg xmlns="http://www.w3.org/2000/svg" viewBox="0 0 100 100"><path d="M70 31c-1.1 0-2.1.2-3 .7V18c0-3.9-3.1-7-7-7-1.1 0-2.1.2-3 .7C56.8 8 53.8 5 50 5s-6.8 3-7 6.7c-.9-.4-1.9-.7-3-.7-3.9 0-7 3.1-7 7v5.7c-.9-.4-1.9-.7-3-.7-3.9 0-7 3.1-7 7v27.5C23 68.3 25.9 75 33 80v13c0 1.1.9 2 2 2h30c1.1 0 2-.9 2-2V79.8C76.2 71 77 66.4 77 56V38c0-3.9-3.1-7-7-7zM57 18c0-1.7 1.3-3 3-3s3 1.3 3 3v20.3c-1.5-1.2-3.3-2-5.2-2.1H57V18zm-10-6c0-1.7 1.3-3 3-3s3 1.3 3 3v25.1c-1.1.5-2.1 1.1-3 1.9-.9-.8-1.9-1.4-3-1.9V12zm1.4 31.1c.4.5 1 .8 1.6.8s1.2-.3 1.6-.8c1.3-1.8 3.4-2.9 5.5-2.9h.4c2.2.1 4.3 1.9 5.1 4.4 1.1 3.3-.3 6.8-3.8 9.6l-8.8 7-8.8-7c-3.5-2.9-4.9-6.4-3.9-9.7.8-2.5 2.9-4.3 5.1-4.4h.4c2.2.1 4.3 1.2 5.6 3zM37 18c0-1.7 1.3-3 3-3s3 1.3 3 3v18.2h-.8c-1.9.1-3.7.9-5.2 2.1V18zm36 38c0 9.6-.4 13.1-9.4 21.5-.4.4-.6 1-.6 1.5v12H37V79c0-.7-.3-1.3-.9-1.7-6.6-4.4-9.1-9.8-9.1-19.8V30c0-1.7 1.3-3 3-3s3 1.3 3 3v17c.1 3.7 2.1 7.4 5.7 10.4l10.1 7.9c.4.3.8.4 1.2.4s.9-.1 1.2-.4l10.1-8c3.6-2.9 5.6-6.6 5.7-10.4v-9c0-1.7 1.3-3 3-3s3 1.3 3 3V56zM60 73c0 1.1-.9 2-2 2-3.3 0-6 2.7-6 6 0 1.1-.9 2-2 2s-2-.9-2-2c0-3.3-2.7-6-6-6-1.1 0-2-.9-2-2s.9-2 2-2c3.3 0 6.2 1.6 8 4 1.8-2.4 4.7-4 8-4 1.1 0 2 .9 2 2z"/></svg>