<svg xmlns="http://www.w3.org/2000/svg" width="1326.604" height="369.281" viewBox="0 0 1326.604 369.281">
  <g id="Group_6" data-name="Group 6" transform="translate(-262.21 -251.403)">
    <g id="Group_3" data-name="Group 3" transform="translate(262.21 251.403)">
      <g id="Group_2" data-name="Group 2" transform="translate(0 0)">
        <rect id="Rectangle_1" data-name="Rectangle 1" width="51.023" height="255.116" transform="translate(0 77.173)"/>
        <path id="Path_1" data-name="Path 1" d="M240.156,206.266a129.482,129.482,0,0,0,22.96-72.708C263.116,63.4,205.715,6,135.558,6S8,63.4,8,133.558,65.4,261.116,135.558,261.116a131,131,0,0,0,67.606-19.134l59.952,56.126,35.716-35.716ZM59.023,133.558a76.535,76.535,0,1,1,76.535,76.535A76.76,76.76,0,0,1,59.023,133.558Z" transform="translate(94.047 71.173)"/>
        <path id="Path_2" data-name="Path 2" d="M284.565,108.047H159.558V159.07h71.433A76.763,76.763,0,1,1,158.283,57.023h2.551c19.134,0,36.992,8.929,51.023,21.685l36.992-36.992C236.093,28.96,220.786,20.031,204.2,13.653A131.386,131.386,0,0,0,159.558,6C89.4,6,32,63.4,32,133.558S89.4,261.116,159.558,261.116c15.307,0,30.614-2.551,44.645-8.929,16.583-6.378,31.89-15.307,44.645-28.063a130.09,130.09,0,0,0,35.716-66.33,157.029,157.029,0,0,0,2.551-25.512C287.116,123.354,285.841,115.7,284.565,108.047Z" transform="translate(376.186 71.173)"/>
        <path id="Path_3" data-name="Path 3" d="M307.565,108.047a130.091,130.091,0,0,0-35.716-66.33C259.093,28.96,243.786,20.031,227.2,13.653A131.387,131.387,0,0,0,182.558,6C112.4,6,55,63.4,55,133.558s57.4,127.558,127.558,127.558c15.307,0,30.614-2.551,44.645-8.929,16.583-6.378,31.89-15.307,44.645-28.063l-35.716-35.716c-12.756,12.756-30.614,20.409-51.023,21.685h-2.551c-33.165,0-61.228-21.685-72.708-51.023H306.29a157.033,157.033,0,0,0,2.551-25.512C308.841,124.629,308.841,115.7,307.565,108.047Zm-197.715,0a76.4,76.4,0,0,1,72.708-51.023c34.441,0,61.228,21.685,72.708,51.023Z" transform="translate(646.57 71.173)"/>
        <path id="Path_4" data-name="Path 4" d="M205.558,6C135.4,6,78,63.4,78,133.558s57.4,127.558,127.558,127.558,127.558-57.4,127.558-127.558S275.715,6,205.558,6Zm0,204.093a76.535,76.535,0,1,1,76.535-76.535A76.76,76.76,0,0,1,205.558,210.093Z" transform="translate(916.954 71.173)"/>
        <g id="Group_5" data-name="Group 5" transform="translate(264.79 -254.403)">
          <g id="Group_5-2" data-name="Group 5" transform="translate(962 540)">
            <path id="Path_7" data-name="Path 7" d="M121.69,25.559a22.567,22.567,0,1,0,22.329,22.6A22.37,22.37,0,0,0,121.69,25.559Zm0,42.058a19.493,19.493,0,1,1,19.269-19.46A19.337,19.337,0,0,1,121.69,67.617Z" transform="translate(-99.411 -25.559)"/>
            <path id="Path_8" data-name="Path 8" d="M116.266,33.563c0-3.7-2.181-7.141-7.078-7.141h-8.557v22.47h3.252V40.973h3.571l5.433,7.919h3.571l-5.56-8.1C114.723,40.016,116.266,37.4,116.266,33.563Zm-12.383,4.476V29.419h5.165c2.933,0,4.081,2.244,4.081,4.349s-1.148,4.272-4.144,4.272Z" transform="translate(-85.073 -15.417)"/>
          </g>
          <path id="Path_9" data-name="Path 9" d="M121.69,25.559a22.567,22.567,0,1,0,22.329,22.6A22.37,22.37,0,0,0,121.69,25.559Zm0,42.058a19.493,19.493,0,1,1,19.269-19.46A19.337,19.337,0,0,1,121.69,67.617Z" transform="translate(862.589 514.441)"/>
        </g>
      </g>
    </g>
    <path id="Path_10" data-name="Path 10" d="M176,16.2a44.416,44.416,0,1,0,0,62.813A44.413,44.413,0,0,0,176,16.2Zm-17.943,44.87a19.036,19.036,0,1,1,0-26.927A19.047,19.047,0,0,1,158.061,61.074Z" transform="translate(1399.8 248.209)" fill="#6fb969"/>
  </g>
</svg>
