<svg xmlns="http://www.w3.org/2000/svg" xmlns:xlink="http://www.w3.org/1999/xlink" id="Layer_1" x="0px" y="0px" viewBox="0 0 320.9 405.9" style="enable-background:new 0 0 320.9 405.9;" xml:space="preserve"><style type="text/css">	.st0{fill:#FFFFFF;}	.st1{fill:#D11873;}	.st2{fill:#003352;}</style><g>	<g>		<path class="st0" d="M159.9,395.9c-29.4,0-55.4-8.1-73.2-22.9l-0.1-0.1c-4.2-3.6-6.6-8.9-6.6-14.5v-67.5c0-5.6,2.4-10.9,6.6-14.5   l0.1-0.1c17.8-14.8,43.8-22.9,73.2-22.9s55.4,8.1,73.2,22.9l0.1,0.1c4.2,3.6,6.6,8.9,6.6,14.5v67.5c0,5.7-2.4,10.9-6.6,14.5   l-0.1,0.1C215.3,387.8,189.3,395.9,159.9,395.9z M153.4,324.6c2.9,1.2,5.3,3.5,6.5,6.4c1.2-2.9,3.5-5.2,6.4-6.3   c-2.9-1.2-5.3-3.5-6.5-6.4C158.6,321.2,156.3,323.5,153.4,324.6z"></path>		<path class="st0" d="M159.9,263.4c26.8,0,50.8,7.3,66.8,20.6c2,1.7,3.1,4.3,3.1,6.9v67.5c0,2.7-1.1,5.2-3.1,6.9   c-16,13.3-40,20.6-66.8,20.6s-50.8-7.3-66.8-20.6c-2-1.7-3.1-4.3-3.1-6.9v-67.5c0-2.7,1.1-5.2,3.1-6.9   C109.1,270.7,133.1,263.4,159.9,263.4 M134.3,333.8h14.8c0.9,0,1.7,0.7,1.7,1.7v14.9c0,0.9,0.7,1.7,1.7,1.7h14.8   c0.9,0,1.7-0.7,1.7-1.7v-14.9c0-0.9,0.7-1.7,1.7-1.7h14.8c1,0,1.8-0.8,1.6-1.7v-14.9c0-0.9-0.7-1.7-1.7-1.7h-14.8   c-0.9,0-1.7-0.7-1.7-1.7v-14.9c0-0.9-0.7-1.7-1.7-1.7h-14.8c-0.9,0-1.7,0.7-1.7,1.7v14.9c0,0.9-0.7,1.7-1.7,1.7h-14.7   c-0.9,0-1.7,0.7-1.7,1.7v14.9C132.6,333,133.3,333.8,134.3,333.8 M159.9,243.4c-31.8,0-60,9-79.6,25.2l-0.1,0.1l-0.1,0.1   c-6.4,5.5-10.1,13.6-10.1,22.1v67.5c0,8.6,3.7,16.7,10.1,22.1l0.1,0.1l0.1,0.1c19.6,16.3,47.8,25.2,79.6,25.2s60-9,79.6-25.2   l0.1-0.1l0.1-0.1c6.4-5.5,10.1-13.6,10.1-22.1v-67.5c0-8.6-3.7-16.7-10.1-22.1l-0.1-0.1l-0.1-0.1   C219.9,252.4,191.6,243.4,159.9,243.4L159.9,243.4z"></path>	</g>	<g>		<path class="st0" d="M201.9,266.5c-13.6-0.1-22.8-8.4-30.2-15c-4.2-3.8-8.5-7.7-11.3-7.7s-7.1,3.9-11.3,7.6   c-7.4,6.7-16.6,15-30.2,15c-24.6,0-30.5-17.5-34.4-29c-1.7-5.1-3.3-9.8-5.9-12.4c-4-4-10.3-4.5-20.4-5l-1.5-0.1   c-4.2-0.2-8.3-1.7-11.9-4.3c-9.7-7-9.7-18-9.6-26.8c0-6.6,0-12.3-3.1-16.2c-13.6-16.7-26.5-32.5-20.5-60.3   C14.8,97.2,25,87.7,34.9,78.5c6.8-6.3,13.8-12.7,18.7-21.2C70.5,28.9,89.9,10,130.5,10c15.7,0,22.9,7.5,26.1,13.8   c3.8,7.3,3.8,16.1,3.8,21.8v55.8c0,15.6-11.8,23.5-21.2,29.9c-0.4,0.2-0.7,0.5-1.1,0.7c6.7-2.5,15-3.7,21.8-3.7h1   c6.8,0,14.9,1.1,21.6,3.6c-0.3-0.2-0.6-0.4-0.9-0.6c-9.5-6.4-21.2-14.4-21.2-30v-56c0.1-6.5,0.2-14.6,3.9-21.7   c3.3-6.3,10.5-13.8,26.2-13.8c40.5,0,60,18.9,76.8,47.3c5,8.4,12,14.9,18.7,21.1c10,9.2,20.2,18.7,23.5,33.9   c5.9,27.8-6.9,43.6-20.5,60.4c-3.2,3.9-3.2,9.6-3.1,16.2c0,8.8,0.1,19.8-9.6,26.8c-3.3,2.4-7.3,3.9-11.5,4.3h-0.3l-1.2,0.1   c-10.3,0.6-16.8,1.1-20.8,5.1c-2.5,2.5-4.2,7.3-5.9,12.3C232.5,249,226.6,266.5,201.9,266.5L201.9,266.5z M197.3,168.2   c-0.4,1.1-0.9,2.2-1.4,3.3c-2.8,5.4-6.5,9.5-9.7,13.2c-2,2.3-3.9,4.5-5.5,6.8c-2.7,4-2.7,6.8,2.4,15.5   c8.4,14.3,12.3,14.7,12.8,14.7h0.1h0.2h0.2c0.2,0,0.5-0.1,0.8-0.2v-0.3L197.3,168.2z M123.8,221.5c0.3,0.1,0.6,0.1,0.8,0.2   l0.4,0.1c0.6,0,4.5-0.6,12.9-14.7c5.4-9.2,4.9-11.8,2.4-15.5c-1.6-2.4-3.5-4.6-5.6-6.9c-3.2-3.6-6.8-7.7-9.7-13.2   c-0.5-1-1-2.1-1.4-3.2l0.3,52.9C123.8,221.1,123.8,221.4,123.8,221.5z"></path>		<path class="st0" d="M190.5,20c36,0,52.6,16,68.2,42.4c13.2,22.3,36.5,30.7,41,52c4.8,22.6-4.8,35.1-18.5,52   c-10.9,13.4,0.2,33.2-10.9,41.2c-1.9,1.4-4.2,2.2-6.5,2.4c-11,0.6-21.3,0.9-28.5,8c-12,11.9-6.4,38.5-33.3,38.5   c-18.4-0.1-27.3-22.7-41.5-22.7s-23.1,22.6-41.5,22.6c-26.9,0-21.3-26.6-33.3-38.5c-7.2-7.2-17.5-7.4-28.5-8   c-2.4-0.1-4.6-1-6.5-2.4c-11.1-8,0-27.8-10.9-41.2c-13.7-16.8-23.4-29.3-18.5-51.9c4.6-21.3,27.9-29.7,41-52   C77.9,36,94.5,20,130.5,20c19.4,0,19.9,13.8,19.9,25.6v55.8c0,21.8-37,22.3-37,50l0.4,69.6c-0.3,9.1,7.5,10.2,9.2,10.5   c0.7,0.1,1.3,0.2,2,0.2c9.4,0,17.3-12.7,21.4-19.7c5.3-9,8.4-16.9,2-26.2c-4.7-6.9-10.7-11.5-14.6-19c-3.3-6.3-3.6-17.4,2.2-22.4   c3.7-3.1,13.8-6,23.9-6c0.2,0,0.3,0,0.5,0s0.3,0,0.5,0c10.1,0,20.1,2.9,23.9,6c5.9,5,5.5,16.1,2.2,22.4c-3.9,7.5-9.9,12.1-14.6,19   c-6.4,9.4-3.2,17.3,2,26.2c4.1,7,12,19.7,21.4,19.7c0.7,0,1.3-0.1,2-0.2c1.7-0.3,9.5-1.4,9.2-10.5l0.4-69.6c0-27.6-37-28.2-37-50   V45.6C170.6,33.8,171,20,190.5,20 M190.5,0c-15.3,0-24.6,5.9-30,11.9C155,5.9,145.8,0,130.5,0c-48,0-69.4,25.1-85.4,52.2l0,0l0,0   c-4.2,7.2-10.4,12.9-16.9,18.9C17.6,80.9,5.7,92,1.7,110.2c-7,32.5,8.7,51.8,22.5,68.8c0.9,1.1,0.9,6.6,0.9,9.8   c0,9.3-0.1,24.9,13.8,34.9c5.2,3.8,11.1,5.9,17.3,6.2l1.5,0.1c4.9,0.3,12.4,0.7,13.8,2.1l0,0l0,0c1,1.1,2.5,5.5,3.5,8.5   c2.2,6.6,5,14.8,11.2,21.9c8,9.2,19,13.9,32.8,13.9c17.5,0,29.2-10.6,36.9-17.5c1.3-1.2,3.1-2.8,4.6-4c1.5,1.2,3.2,2.8,4.6,4   c7.7,7,19.4,17.5,36.8,17.6h0.1h0.1c13.8,0,24.8-4.7,32.8-13.9c6.1-7.1,8.9-15.3,11.2-21.9c1-2.9,2.5-7.3,3.5-8.5   c1.6-1.5,9.2-1.9,14.3-2.2l1.2-0.1h0.3h0.3c6-0.5,11.7-2.7,16.5-6.2c13.8-10,13.8-25.6,13.8-34.9c0-3.3,0-8.7,0.9-9.8   c13.8-17,29.4-36.3,22.5-68.8c-3.9-18.3-15.9-29.4-26.4-39.1c-6.5-6-12.7-11.7-16.9-18.9C259.9,25.1,238.4,0,190.5,0L190.5,0z"></path>	</g>	<path class="st1" d="M185.5,333.8h-14.8c-1,0-1.7,0.8-1.7,1.7v14.9c0,1-0.8,1.7-1.7,1.7h-14.8c-1,0-1.7-0.8-1.7-1.7v-14.9  c0-1-0.8-1.7-1.7-1.7h-14.8c-1,0-1.7-0.8-1.7-1.7v-14.9c0-1,0.8-1.7,1.7-1.7H149c1,0,1.7-0.8,1.7-1.7v-14.9c0-1,0.8-1.7,1.7-1.7  h14.8c1,0,1.7,0.8,1.7,1.7v14.9c0,1,0.8,1.7,1.7,1.7h14.8c1,0,1.7,0.8,1.7,1.7v14.9C187.3,333,186.5,333.8,185.5,333.8z   M229.8,290.9c0-2.6-1.1-5.2-3.1-6.9c-16-13.3-40-20.6-66.8-20.6s-50.8,7.3-66.8,20.6c-2,1.7-3.1,4.2-3.1,6.9v67.5  c0,2.6,1.1,5.2,3.1,6.9c16,13.3,40,20.6,66.8,20.6s50.8-7.3,66.8-20.6c2-1.7,3.1-4.2,3.1-6.9V290.9z"></path>	<path class="st2" d="M160.5,233.8c-14.2,0-23.1,22.6-41.5,22.6c-26.9,0-21.3-26.6-33.3-38.5c-7.2-7.2-17.5-7.4-28.5-8  c-2.4-0.1-4.6-1-6.5-2.4c-11.1-8,0-27.8-10.9-41.2c-13.7-16.8-23.4-29.3-18.5-51.9c4.6-21.3,27.9-29.7,41-52  C77.9,36,94.5,20,130.5,20c19.4,0,19.9,13.8,19.9,25.6v55.8c0,21.8-37,22.3-37,50l0.4,69.6c-0.3,9.1,7.5,10.2,9.2,10.5  c10.3,2,19-12,23.4-19.5c5.3-9,8.4-16.9,2-26.2c-4.7-6.9-10.7-11.5-14.6-19c-3.3-6.3-3.6-17.4,2.2-22.4c3.8-3.2,14.1-6.1,24.4-6  c10.3-0.1,20.6,2.8,24.4,6c5.9,5,5.5,16.1,2.2,22.4c-3.9,7.5-9.9,12.1-14.6,19c-6.4,9.4-3.2,17.3,2,26.2  c4.4,7.5,13.1,21.5,23.4,19.5c1.7-0.3,9.5-1.4,9.2-10.5l0.4-69.6c0-27.6-37-28.2-37-50V45.6C170.6,33.8,171,20,190.5,20  c36,0,52.6,16,68.2,42.4c13.2,22.3,36.5,30.7,41,52c4.8,22.6-4.8,35.1-18.5,52c-10.9,13.4,0.2,33.2-10.9,41.2  c-1.9,1.4-4.2,2.2-6.5,2.4c-11,0.6-21.3,0.9-28.5,8c-12,11.9-6.4,38.5-33.3,38.5C183.6,256.4,174.7,233.8,160.5,233.8z"></path></g></svg>