<svg xmlns="http://www.w3.org/2000/svg" viewBox="0 0 48 48"><path fill="#bfbfbf" d="M42,15.32V16l-7.75,9.63A12.61,12.61,0,0,0,37,17.8V17a6,6,0,0,0-6-6q-6,0-9,6V15A10,10,0,0,1,33.51,5.11,10.22,10.22,0,0,1,42,15.32Z"/><path fill="#424242" d="M27.64,48A10.65,10.65,0,0,1,17,37.36V15a15,15,0,0,1,30,0v.8a21.62,21.62,0,0,1-4.72,13.45,19.54,19.54,0,0,0-4.11,9.62A10.69,10.69,0,0,1,27.64,48ZM32,2A13,13,0,0,0,19,15V37.36a8.64,8.64,0,0,0,17.19,1.22A21.56,21.56,0,0,1,40.72,28,19.59,19.59,0,0,0,45,15.8V15A13,13,0,0,0,32,2Z"/><path fill="#bfbfbf" d="M30,42.35a1,1,0,0,1-.51-1.86c2.46-1.47,1.17-3.26,3.4-8.86a1,1,0,0,1,1.3-.56,1,1,0,0,1,.56,1.3A24.22,24.22,0,0,0,33.25,38a5.66,5.66,0,0,1-2.74,4.23A1,1,0,0,1,30,42.35Z"/><path fill="#424242" d="M33.65,4.12A11,11,0,0,0,21,15v2.44a4.16,4.16,0,0,0,1.65,3.3l1.5,1.12a2.13,2.13,0,0,1-.76,3.76L21.76,26A1,1,0,0,0,22,28a12,12,0,0,0,1.88-.44,4.13,4.13,0,0,0,1.47-7.3l-1.5-1.12A2.17,2.17,0,0,1,23,17.26C24.83,13.73,27.44,12,31,12a5,5,0,0,1,5,5v.8A11.57,11.57,0,0,1,33.47,25a1,1,0,0,0,.16,1.41,1,1,0,0,0,1.4-.16,13.53,13.53,0,0,0,3-8.45V17a7,7,0,0,0-7-7,10,10,0,0,0-7.86,3.5A9,9,0,0,1,33.36,6.1,9.22,9.22,0,0,1,41,15.32V16a1,1,0,0,0,2,0v-.68A11.23,11.23,0,0,0,33.65,4.12Z"/><path fill="#fc6459" d="M7.71,33.71a1,1,0,0,1-.61-1.79,10,10,0,0,0,0-15.84A1,1,0,1,1,8.32,14.5a12,12,0,0,1,0,19A1,1,0,0,1,7.71,33.71Z"/><path fill="#fc6459" d="M4.85,30.85A1,1,0,0,1,4.3,29a6,6,0,0,0,0-10,1,1,0,0,1,1.1-1.66,8,8,0,0,1,0,13.36A.94.94,0,0,1,4.85,30.85Z"/><path fill="#fc6459" d="M1.68,25.87a2,2,0,0,0,0-3.74,1,1,0,1,1,.64-1.9,4,4,0,0,1,0,7.54A1,1,0,0,1,1.68,25.87Z"/></svg>